<?xml version="1.0" encoding="UTF-8"?> <svg xmlns="http://www.w3.org/2000/svg" width="115" height="157" viewBox="0 0 115 157" fill="none"><path d="M83.7612 12.1708H111.262C113.33 12.1708 115 13.9239 115 16.0879V152.243C115 154.41 113.327 156.16 111.262 156.16H3.73844C1.67011 156.16 0 154.407 0 152.243V16.0879C0 13.9207 1.67308 12.1708 3.73844 12.1708H31.2388V4.54211C31.2388 2.37493 32.9119 0.625 34.9773 0.625H80.0198C82.0881 0.625 83.7582 2.37804 83.7582 4.54211V12.1708H83.7612ZM56.8224 123.254C54.7541 123.254 53.084 121.501 53.084 119.337C53.084 117.173 54.7571 115.42 56.8224 115.42H92.299C94.3673 115.42 96.0374 117.173 96.0374 119.337C96.0374 121.501 94.3643 123.254 92.299 123.254H56.8224ZM20.0592 122.077C18.5971 120.545 18.5971 118.063 20.0592 116.538C21.5213 115.006 23.8897 115.006 25.3459 116.538L29.5687 120.962L40.6176 109.392C42.0797 107.86 44.4482 107.86 45.9043 109.392C47.3664 110.924 47.3664 113.405 45.9043 114.931L32.2136 129.276C30.7515 130.808 28.383 130.808 26.9268 129.276L20.0562 122.077H20.0592ZM56.8224 94.3522C54.7541 94.3522 53.084 92.5991 53.084 90.4351C53.084 88.271 54.7571 86.518 56.8224 86.518H92.299C94.3673 86.518 96.0374 88.271 96.0374 90.4351C96.0374 92.5991 94.3643 94.3522 92.299 94.3522H56.8224ZM20.0592 93.1752C18.5971 91.6432 18.5971 89.1616 20.0592 87.6358C21.5213 86.1038 23.8897 86.1038 25.3459 87.6358L29.5687 92.0667L40.6176 80.4897C42.0797 78.9578 44.4482 78.9578 45.9043 80.4897C47.3664 82.0217 47.3664 84.5034 45.9043 86.0291L32.2136 100.374C30.7515 101.906 28.383 101.906 26.9268 100.374L20.0562 93.1752H20.0592ZM56.8224 65.4565C54.7541 65.4565 53.084 63.7035 53.084 61.5394C53.084 59.3754 54.7571 57.6223 56.8224 57.6223H92.299C94.3673 57.6223 96.0374 59.3754 96.0374 61.5394C96.0374 63.7035 94.3643 65.4565 92.299 65.4565H56.8224ZM20.0592 64.2795C18.5971 62.7476 18.5971 60.2659 20.0592 58.7402C21.5213 57.2082 23.8897 57.2082 25.3459 58.7402L29.5687 63.1648L40.6176 51.5941C42.0797 50.0621 44.4482 50.0621 45.9043 51.5941C47.3664 53.126 47.3664 55.6077 45.9043 57.1334L32.2136 71.4785C30.7515 73.0105 28.383 73.0105 26.9268 71.4785L20.0562 64.2795H20.0592ZM31.2359 20.005H7.47687V148.326H107.517V20.005H83.7582V29.53C83.7582 31.6972 82.0851 33.4471 80.0198 33.4471H34.9743C32.906 33.4471 31.2359 31.6941 31.2359 29.53V20.005ZM76.2784 25.6129V8.45921H38.7127V25.6129H76.2784Z" fill="white" opacity="0.05" /></svg>
