<svg width="154" height="157" viewBox="0 0 154 157" fill="none" xmlns="http://www.w3.org/2000/svg"><path d="M151.844 84.872L117.656 65.0642V25.9708C117.656 24.416 116.826 22.986 115.5 22.2086L79.156 1.18756C77.8305 0.410136 76.1695 0.410136 74.844 1.18756L38.5 22.2086C37.1745 22.986 36.344 24.416 36.344 25.9708V65.0615L2.156 84.872C0.8305 85.6494 0 87.0793 0 88.6341V130.74C0 132.295 0.8305 133.725 2.156 134.502L38.5 155.554C38.5 155.554 38.5303 155.554 38.5303 155.584C38.6843 155.679 38.8382 155.74 38.9922 155.832H39.0225C39.1765 155.893 39.3305 155.956 39.4845 155.987C39.5148 155.987 39.578 156.018 39.6083 156.018C39.732 156.048 39.853 156.079 40.0098 156.079C40.04 156.079 40.1033 156.079 40.1335 156.109C40.2875 156.14 40.4717 156.14 40.656 156.14C40.8402 156.14 40.9943 156.14 41.1785 156.109C41.2088 156.109 41.272 156.109 41.3023 156.079C41.426 156.048 41.58 156.048 41.7037 156.018C41.734 156.018 41.7973 155.987 41.8275 155.987C41.9815 155.956 42.1355 155.893 42.2895 155.832H42.3198C42.4738 155.77 42.6278 155.676 42.7818 155.584C42.7818 155.584 42.812 155.584 42.812 155.554L77 135.746L111.188 155.554C111.188 155.554 111.218 155.554 111.218 155.584C111.372 155.679 111.526 155.74 111.68 155.832H111.711C111.865 155.893 112.019 155.956 112.173 155.987C112.203 155.987 112.266 156.018 112.296 156.018C112.42 156.048 112.541 156.079 112.698 156.079C112.728 156.079 112.791 156.079 112.822 156.109C112.976 156.14 113.16 156.14 113.344 156.14C113.528 156.14 113.682 156.14 113.867 156.109C113.897 156.109 113.96 156.109 113.99 156.079C114.114 156.048 114.268 156.048 114.392 156.018C114.422 156.018 114.485 155.987 114.516 155.987C114.67 155.956 114.824 155.893 114.978 155.832H115.008C115.162 155.77 115.316 155.676 115.47 155.584C115.47 155.584 115.5 155.584 115.5 155.554L151.844 134.502C153.169 133.725 154 132.295 154 130.74L153.994 88.6036C153.994 87.0793 153.164 85.6494 151.839 84.872H151.844ZM113.344 105.646L84.7935 89.1006L113.344 72.5553L141.894 89.1006L113.344 105.646V105.646ZM72.688 50.5125V81.1125L44.968 65.067V34.4947L72.688 50.5097V50.5125ZM109.032 65.0642L81.312 81.1098V50.5097L109.032 34.4947V65.0642ZM40.656 72.5581L69.2065 89.1034L40.656 105.646L12.1055 89.1006L40.656 72.5581V72.5581ZM44.968 113.17L72.6577 97.1247V128.222L44.968 144.237V113.17ZM77 9.92806L105.551 26.4734L77 43.0159L48.4495 26.4706L77 9.92806ZM8.624 97.1247L36.344 113.17V144.267L8.624 128.191V97.1247V97.1247ZM81.312 97.1247L109.032 113.17V144.267L81.312 128.191V97.1247V97.1247ZM117.656 144.237V113.17L145.346 97.1247V128.222L117.656 144.237V144.237Z" fill="white" opacity="0.05" /></svg>
