<?xml version="1.0" encoding="UTF-8"?> <svg xmlns="http://www.w3.org/2000/svg" width="159" height="156" viewBox="0 0 159 156" fill="none"><path d="M2.3137 155.846C3.48971 155.703 4.42934 154.789 4.6155 153.608C5.25374 149.83 7.21573 146.407 10.141 143.965C10.924 143.321 11.7721 142.76 12.6733 142.294C13.1283 142.041 13.5981 141.82 14.0798 141.626C14.5259 141.426 15.2055 141.175 15.7345 140.939L23.0299 138.048L54.6346 125.212C56.3956 128.743 58.9929 131.781 62.1959 134.052C67.2073 137.636 73.2026 139.54 79.3427 139.498C85.4828 139.456 91.4545 137.469 96.4156 133.816C99.4857 131.557 101.98 128.596 103.696 125.176C116.157 130.274 127.06 134.652 136.376 138.415L143.474 141.238C146.116 142.202 148.453 143.861 150.249 146.045C152.043 148.23 153.231 150.856 153.683 153.655C153.857 154.921 154.933 155.858 156.197 155.846C156.812 155.735 157.356 155.383 157.71 154.864C158.065 154.345 158.201 153.706 158.083 153.088C157.639 148.34 155.577 143.897 152.241 140.522C150.335 138.609 148.089 137.078 145.622 136.009L138.64 132.867C129.524 128.755 118.999 124.075 106.87 118.727L106.97 112.043V108.05L107.071 107.915L107.467 107.363C108.013 106.644 108.51 105.877 109.006 105.107C112.859 98.8671 115.38 91.881 116.402 84.6023C121.009 80.7705 124.173 75.4645 125.37 69.5616C125.713 67.8576 125.89 66.1208 125.899 64.3809C125.905 61.6772 125.074 59.0361 123.529 56.8277C121.981 54.6224 119.791 52.9542 117.262 52.0619V42.5689C117.321 37.1465 115.69 31.8434 112.596 27.4118C109.65 23.2517 105.977 19.6646 101.758 16.8326C98.4604 14.6212 94.8111 13.0008 90.9699 12.0368V5.20585C90.9699 3.99126 90.4912 2.82441 89.6402 1.96792C88.7892 1.10845 87.6369 0.625 86.4343 0.625H76.7868C73.0726 0.84882 69.4234 1.71426 65.9988 3.18252C59.3445 6.0504 53.5738 10.6671 49.2864 16.552C47.1618 19.4169 45.389 22.5295 44.0091 25.8272C42.5937 29.2173 41.7191 32.8074 41.4118 36.472C41.2286 38.1432 41.2138 40.1158 41.2138 41.602V51.9813C38.3801 52.9094 35.9424 54.7925 34.3143 57.3112C33.091 59.1973 32.376 61.3758 32.2459 63.6289V66.4699C32.8103 73.7277 36.3413 80.4184 41.9909 84.9366C43.0044 91.8243 45.3417 98.4434 48.8756 104.424C49.3868 105.209 49.8507 105.997 50.3974 106.731L51.0592 107.65V111.577L51.1597 118.713L20.6483 132.303L13.5006 135.544C12.9037 135.827 12.4073 136.027 11.7307 136.361C11.0836 136.663 10.4542 137.003 9.84551 137.382C8.65768 138.095 7.54962 138.937 6.53612 139.889C2.84852 143.315 0.540809 147.988 0.0503105 153.026C-0.0944753 153.715 0.0769038 154.437 0.517171 154.983C0.957438 155.532 1.61932 155.849 2.31665 155.849L2.3137 155.846ZM49.9364 82.0956C49.8094 80.9406 49.2095 79.8902 48.2817 79.2038C44.4405 76.4195 41.8491 72.2146 41.0661 67.5055C40.9656 66.9205 40.9006 66.3177 40.8681 65.7328V64.1123C40.9183 63.3573 41.1695 62.6292 41.595 62.0054C42.4578 60.7222 43.9145 59.9791 45.451 60.0329H45.5987C46.7482 60.0508 47.8592 59.6061 48.6836 58.7974C49.508 57.9886 49.9837 56.8815 50.0014 55.7206L50.1492 46.3619C50.2319 43.2553 50.1492 39.9099 50.4121 37.3047C50.6662 34.586 51.3399 31.924 52.4155 29.4172C53.5236 26.809 54.9419 24.347 56.635 22.0819C59.9621 17.5249 64.4298 13.9438 69.5741 11.7026C72.0148 10.6641 74.6091 10.0493 77.2507 9.87922H82.0493V15.9462C82.0552 17.0713 82.4748 18.1546 83.2224 18.9872C83.9699 19.8198 84.9953 20.3451 86.1033 20.4585C93.8302 21.2433 100.895 26.3076 105.528 32.7268C107.549 35.6185 108.628 39.0803 108.607 42.6196V55.7713C108.625 56.9113 109.092 58.0006 109.904 58.7944C110.717 59.5882 111.81 60.0209 112.942 60C114.543 60.012 116.024 60.8655 116.845 62.2561C117.217 62.9276 117.421 63.6796 117.442 64.4466C117.445 65.6134 117.339 66.7773 117.129 67.9233C116.29 72.3668 113.831 76.3299 110.244 79.0367C109.325 79.6962 108.725 80.7138 108.589 81.8449C107.963 88.5744 105.886 95.0831 102.5 100.914C102.104 101.565 101.705 102.201 101.276 102.785L100.963 103.236L100.765 103.538C100.65 103.705 100.532 103.89 100.416 104.072C99.9762 104.818 99.6748 105.638 99.5241 106.495C99.4532 106.916 99.4207 107.339 99.4236 107.763V111.908L99.5566 120.9V121.184C99.5477 121.333 99.5477 121.485 99.5566 121.634C97.2046 123.699 94.6339 125.499 91.8948 127C83.8488 131.3 74.2309 131.384 66.114 127.218C63.304 125.743 60.6624 123.962 58.2365 121.906C58.2985 121.67 58.3369 121.431 58.3517 121.186V121.07L58.4847 111.511V107.05C58.4699 106.587 58.4079 106.128 58.3015 105.68C58.1863 104.86 57.9351 104.063 57.5569 103.326L56.8448 102.272C56.4134 101.654 56.0499 100.986 55.6362 100.35C52.5041 94.7309 50.5599 88.5177 49.9275 82.1015L49.9364 82.0956Z" fill="white" opacity="0.05" /><path d="M139.671 9.5006L142.038 9.73337C143.217 9.94824 144.136 10.8823 144.34 12.073L144.523 14.4634C144.523 15.2811 144.671 16.1346 144.771 16.8359C144.99 19.3785 145.546 21.8794 146.426 24.2727C147.218 24.4816 148.039 24.5562 148.858 24.4906C149.57 24.5443 150.288 24.4697 150.976 24.2727C151.857 21.8794 152.412 19.3785 152.631 16.8359C152.732 16.069 152.814 15.2811 152.879 14.4634L152.98 13.228V11.8403C153.001 8.91568 151.86 6.10152 149.809 4.03342C147.759 1.96532 144.966 0.816376 142.071 0.843234H140.714L139.491 0.944699L137.142 1.19538C134.678 1.48784 132.264 2.11155 129.962 3.04861C129.764 3.83347 129.696 4.64818 129.764 5.45393C129.711 6.15225 129.776 6.85355 129.962 7.528C132.329 8.42925 134.808 9.00223 137.325 9.23202L139.674 9.5006H139.671Z" fill="white" opacity="0.05" /><path d="M5.12631 13.1768L5.22677 14.4123C5.22677 15.2299 5.39224 16.0834 5.47498 16.7847C5.72023 19.3303 6.30233 21.8311 7.21241 24.2215C7.98361 24.4245 8.78437 24.4991 9.57921 24.4394C10.2706 24.4931 10.965 24.4275 11.6299 24.2395C12.5399 21.852 13.125 19.3482 13.3673 16.8027C13.4677 16.0357 13.5505 15.2478 13.6155 14.4302L13.8135 12.0398C14.041 10.8371 14.9954 9.91198 16.195 9.73292L18.5618 9.54789L20.9109 9.29722C23.4284 9.07936 25.9046 8.51534 28.2743 7.62602C28.4811 6.82624 28.555 5.99661 28.49 5.16997C28.5432 4.45076 28.4693 3.72558 28.2743 3.03025C25.9046 2.14094 23.4284 1.57989 20.9109 1.35906L18.5116 0.959166L17.2883 0.857701H15.9143C13.0186 0.836811 10.2322 1.98874 8.18454 4.05982C6.13686 6.13091 4.99925 8.94507 5.02585 11.8697V12.6038L5.12631 13.1738V13.1768Z" fill="white" opacity="0.05" /><path d="M8.20637 113.197C10.2541 115.265 13.0375 116.417 15.9332 116.39H17.2895L18.5128 116.289L20.8618 116.038C23.3852 115.793 25.8614 115.203 28.2252 114.283C28.4262 113.498 28.4912 112.684 28.4262 111.878C28.4793 111.18 28.4143 110.478 28.2252 109.804C25.8614 108.888 23.3852 108.297 20.8618 108.049L18.5128 107.799L16.1962 107.497C15.0202 107.282 14.1012 106.348 13.8944 105.157L13.7112 102.767C13.7112 101.949 13.5634 101.096 13.463 100.395C13.2443 97.852 12.6888 95.3512 11.8083 92.9578C11.0164 92.7489 10.195 92.6743 9.37648 92.7399C8.66437 92.6862 7.94635 92.7608 7.25787 92.9578C6.37734 95.3512 5.82184 97.852 5.60318 100.395C5.50272 101.162 5.41998 101.949 5.35498 102.767L5.25451 104.003V105.39C5.17178 108.285 6.2296 111.09 8.20046 113.194L8.20637 113.197Z" fill="white" opacity="0.05" /><path d="M129.958 114.233C132.328 115.123 134.804 115.684 137.322 115.905L139.671 116.155L140.894 116.257H142.265C145.161 116.278 147.947 115.126 149.995 113.055C152.043 110.984 153.18 108.169 153.154 105.245V103.875L153.053 102.64C153.053 101.822 152.888 100.968 152.805 100.267C152.563 97.7215 151.978 95.2207 151.068 92.8303C150.246 92.6542 149.401 92.6273 148.568 92.7467C147.876 92.693 147.182 92.7586 146.517 92.9467C145.607 95.3341 145.022 97.8379 144.78 100.383C144.679 101.15 144.597 101.938 144.532 102.756L144.334 105.146C144.121 106.334 143.196 107.262 142.017 107.468L139.65 107.653L137.301 107.904C134.784 108.125 132.308 108.686 129.938 109.575C129.731 110.375 129.657 111.204 129.722 112.031C129.666 112.774 129.746 113.523 129.956 114.236L129.958 114.233Z" fill="white" opacity="0.05" /><path d="M67.8243 49.155C68.4477 49.4832 69.1392 49.6623 69.8424 49.6712C70.8057 48.5163 71.964 47.5405 73.267 46.7974C74.7858 45.9618 76.5026 45.5619 78.2311 45.6425C80.1045 45.726 81.8921 46.4572 83.2957 47.7165C84.7435 49.0058 85.6654 50.7933 85.8752 52.7301C86.1087 54.658 85.6388 56.6067 84.5515 58.2122C84.0167 58.9911 83.3548 59.6745 82.5983 60.2356L82.0192 60.6205C81.6055 60.8563 81.1416 61.1219 80.7457 61.4233C79.9331 61.9873 79.1885 62.6439 78.5296 63.378C76.1509 65.9773 74.9867 69.4808 75.3354 73.0023C75.5659 74.9361 75.9027 76.8549 76.346 78.7529C76.346 78.9708 77.5042 79.1379 78.7778 79.1379C79.9361 79.1379 80.8461 78.9529 80.8964 78.7529C81.3396 76.8579 81.6764 74.9361 81.904 73.0023C82.1374 71.4564 82.95 70.0538 84.1703 69.0929C84.4835 68.8452 84.8233 68.6333 85.1808 68.4572C85.364 68.3558 85.5295 68.308 85.7423 68.2065C85.958 68.1051 86.6198 67.7887 87.0335 67.5381C91.6667 64.8671 94.6688 60.0267 95.0233 54.649C95.3809 49.2714 93.0436 44.0698 88.8034 40.799C85.6861 38.3847 81.7739 37.2686 77.8647 37.6745C74.6056 37.9968 71.5503 39.4233 69.1953 41.7182C67.517 43.3923 66.3498 45.5231 65.8357 47.8508C65.7352 48.1672 66.6483 48.7043 67.8213 49.155H67.8243Z" fill="white" opacity="0.05" /><path d="M83.5263 90.6363C83.5263 93.1013 81.5495 95.0978 79.1089 95.0978C76.6682 95.0978 74.6914 93.0983 74.6914 90.6363C74.6914 88.1743 76.6711 86.1748 79.1089 86.1748C81.5466 86.1748 83.5263 88.1743 83.5263 90.6363Z" fill="white" opacity="0.05" /></svg>
