<?xml version="1.0" encoding="UTF-8"?> <svg xmlns="http://www.w3.org/2000/svg" width="240" height="111" viewBox="0 0 240 111" fill="none"><path d="M235.323 67.6048C232.584 64.6768 229.444 62.4048 225.729 60.6714C217.76 56.9615 208.742 54.8719 198.134 54.2767L191.631 53.964C186.776 53.7424 181.908 53.5165 177.083 53.0299C169.7 52.2914 163.327 48.5815 157.246 44.524L160.536 41.2007C162.101 39.6194 162.101 37.0433 160.536 35.462C158.97 33.8807 156.42 33.8807 154.855 35.462L150.8 39.5586C149.406 38.3118 147.639 36.7392 145.601 34.9276L150.034 30.4574C151.6 28.8761 151.6 26.3 150.034 24.7187C148.469 23.1374 145.919 23.1374 144.354 24.7187L139.589 29.5321C137.813 27.9421 135.976 26.2913 134.123 24.6145L138.69 19.9922C140.255 18.4109 140.255 15.8348 138.69 14.2535C137.125 12.6722 134.575 12.6722 133.009 14.2535L128.111 19.2016C126.344 17.6116 124.641 16.0781 123.041 14.6315L127.466 10.17C129.031 8.58868 129.031 6.01257 127.466 4.43128C125.901 2.84998 123.351 2.84998 121.785 4.43128L117.021 9.19687C114.552 6.96829 112.858 5.43479 112.454 5.06119C112.415 5.02209 111.692 4.38349 111.641 4.34005C106.412 -0.0997334 99.9912 -0.334321 94.4438 3.70145C91.8034 5.61725 89.2576 7.65468 86.7161 9.70949C73.2818 20.6265 59.2842 24.0932 43.8288 20.2138C39.5371 19.1495 35.2797 17.9331 31.0138 16.7167L23.4366 14.5793C18.2203 13.1371 13.3953 14.9052 9.91204 19.5448C8.0973 21.9037 7.16412 24.5015 6.56208 26.4868C3.43573 36.6783 1.46618 45.8837 0.533002 54.659C-0.12925 60.9538 -1.04092 69.5901 3.81416 76.8883C5.87402 79.9988 5.88262 83.1006 5.6289 87.9878C5.5988 88.7567 5.5773 89.5387 5.44829 90.3076C4.91505 93.7352 6.08044 96.7544 8.91866 99.3001C11.8773 101.967 15.5326 103.749 19.7641 104.622C34.1961 107.602 48.7226 106.72 62.7417 105.869L67.7903 105.573C73.4495 105.247 77.8144 100.547 78.4078 94.1392C78.4895 93.2791 78.5583 92.4059 78.6056 91.524C88.849 94.604 96.7273 97.4625 103.913 100.716C117.438 106.837 131.375 110.004 145.373 110.113L147.299 110.152C148.013 110.174 148.744 110.191 149.458 110.191C150.43 110.191 151.393 110.152 152.369 110.039C176.391 107.263 199.591 102.415 217.128 98.5051C223.893 97.0151 229.591 94.7039 235.078 91.1156C236.695 90.1208 239.705 88.2658 239.821 84.0085C239.976 78.9909 240.144 72.757 235.319 67.5961L235.323 67.6048ZM8.51013 55.5235C9.3917 47.2912 11.258 38.5768 14.2296 28.8935C14.5994 27.6771 15.0036 26.7562 15.4251 25.9351C17.5236 28.2071 19.7684 30.162 21.9186 31.6912C28.683 36.535 36.0194 40.3058 43.1193 43.9462L49.3289 47.1696C57.6157 51.5312 65.4552 55.6452 72.2755 61.4403C80.773 68.6691 83.9553 75.8153 82.3598 84.2257C81.0525 83.8304 79.8398 83.4351 78.468 83.0311C78.0251 82.8877 77.1134 82.6357 76.0383 82.6357C76.0297 82.6357 76.0082 82.6444 75.9996 82.6444L11.1806 73.7475C10.9312 73.2913 10.7807 72.8352 10.4668 72.3704C7.49955 67.8698 7.83068 62.0833 8.51013 55.5235ZM67.3388 97.4669L62.2601 97.7623C48.1119 98.6355 34.7766 99.4261 21.3724 96.6762C18.5041 96.0767 16.1647 94.9559 14.2468 93.2313C13.2534 92.3407 13.3136 91.9628 13.3738 91.5805C13.5544 90.5161 13.5931 89.4127 13.6748 87.5881C13.7651 85.8027 13.7565 84.0389 13.6447 82.2752L70.5683 90.0904C70.5382 91.1938 70.4995 92.3016 70.3963 93.3963C70.2372 95.2122 69.3427 97.3583 67.3388 97.4712V97.4669ZM230.193 84.6428C226.047 87.3709 221.213 89.3041 215.399 90.5943C198.052 94.4563 175.092 99.2523 151.453 101.989C150.159 102.154 148.865 102.089 147.531 102.05L145.394 101.998C132.549 101.898 119.687 98.9787 107.173 93.3225C101.995 90.981 96.3961 88.8306 90.0144 86.6802C92.5817 74.9726 88.5093 64.655 77.4531 55.2455C69.9491 48.8595 61.357 44.3415 52.4295 39.6541L46.7616 36.7131C39.6145 33.0249 32.8414 29.5452 26.563 25.0663C25.6599 24.419 24.9675 23.8108 24.2064 23.2026L28.855 24.5232C33.1984 25.7613 37.5331 27.0038 41.9195 28.1116C59.6885 32.5209 76.4684 28.4852 91.7776 16.0477C94.1858 14.0494 96.637 12.1032 99.1527 10.2699C101.69 8.4236 104.089 8.51483 106.489 10.5523L107.401 11.3646C107.47 11.4341 108.975 12.8026 111.336 14.9312L107.22 19.0756C105.655 20.6569 105.655 23.233 107.22 24.8143C108.003 25.605 109.035 26.0003 110.058 26.0003C111.082 26.0003 112.118 25.605 112.897 24.8143L117.322 20.3528C118.917 21.7907 120.611 23.3329 122.392 24.9359L118.457 28.9196C116.892 30.5009 116.892 33.077 118.457 34.6583C119.24 35.4489 120.272 35.8443 121.295 35.8443C122.319 35.8443 123.355 35.4489 124.133 34.6583L128.399 30.3488C130.236 31.9996 132.072 33.6548 133.865 35.2534L129.793 39.3674C128.227 40.9487 128.227 43.5248 129.793 45.1061C130.575 45.8968 131.607 46.2921 132.631 46.2921C133.654 46.2921 134.691 45.8968 135.469 45.1061L139.885 40.6446C141.851 42.3997 143.61 43.9505 145.102 45.2668L140.285 50.1324C138.72 51.7137 138.72 54.2898 140.285 55.8711C141.068 56.6617 142.1 57.057 143.124 57.057C144.147 57.057 145.183 56.6617 145.962 55.8711L151.419 50.3583C158.493 55.1543 166.44 60.098 176.253 61.0928C181.229 61.588 186.235 61.8139 191.236 62.0442L197.656 62.357C207.237 62.8956 215.318 64.7376 222.34 68.0218C225.101 69.3077 227.436 70.9802 229.466 73.161C231.883 75.7458 231.913 78.8563 232.063 83.3786C231.908 83.5611 231.298 83.9433 230.193 84.6341V84.6428Z" fill="white" opacity="0.05" /></svg>
